<svg id="Capa_1" enable-background="new 0 0 376.041 376.041" height="512" viewBox="0 0 376.041 376.041" width="512" xmlns="http://www.w3.org/2000/svg"><g><path d="m259.914 135.403-63.454 35.274c10.021 22.113 49.298 36.413 80.696 25.582 30.242-10.433 27.776-24.53 27.776-24.53-61.401 13.045-45.018-36.326-45.018-36.326z" fill="#474c5b"/><path d="m317.521 250.683c-4.834-14.342-15.867-25.759-29.58-32.165l-44.615-21.396-15.608-10.283-40.256-3.407-39.011 2.655-15.737 11.035-44.614 21.396c-13.712 6.406-24.745 17.823-29.58 32.165-1.703 5.053-2.751 10.6-2.515 16.407.567 13.973 2.794 50.563 4.479 77.502 1.106 17.686 15.774 31.449 33.495 31.449h94.042 94.042c17.721 0 32.388-13.762 33.495-31.449 1.685-26.938 3.912-63.528 4.479-77.502.234-5.807-.813-11.354-2.516-16.407z" fill="#d5d6db"/><path d="m269.25 291.361-6.42-.415c1.248-19.395 1.864-42.167-3.015-64.012-4.173-18.687-14.932-31.951-31.976-39.42-32.223-14.128-75.324-3.269-84.609 2.109-17.586 10.181-24.76 24.592-24.76 49.746h-6.433c0-27.421 8.364-43.964 27.968-55.312 11.392-6.596 56.436-17.328 90.418-2.435 19.022 8.338 31.023 23.112 35.67 43.91 5.057 22.635 4.433 45.979 3.157 65.829z" fill="#2f4859"/><path d="m152.943 136.08h70.154v88.724h-70.154z" fill="#f7be56"/><path d="m229.589 191.257-13.036 15.892c-14.764 17.999-42.301 17.999-57.066 0l-13.036-15.892-9.915 4.632v104.628l51.483 75.523 40.446-59.63 9.922-121.042z" fill="#44c4a1"/><path d="m227.334 187.295s11.04 83.57-39.313 188.746c0 0 41.639-29.118 64.879-104.765l-10.652-19.549 16.411-11.049-15.332-43.556c-6.275-4.357-12.686-8.87-15.993-9.827z" fill="#ebf0f3"/><path d="m148.64 186.087s-10.974 84.778 39.38 189.954c0 0-41.639-29.118-64.879-104.765l10.652-19.549-16.411-11.049 15.332-43.556z" fill="#ebf0f3"/><g fill="#fcd462"><path d="m253.392 95.319c-3.98-.902-8.815 5.467-10.799 14.226-1.984 8.758-.366 16.589 3.614 17.491s8.815-5.467 10.799-14.226c1.984-8.758.366-16.589-3.614-17.491z"/><path d="m121.843 95.319c3.98-.902 8.815 5.467 10.799 14.226s.366 16.589-3.614 17.491-8.815-5.467-10.799-14.226-.366-16.589 3.614-17.491z"/><ellipse cx="188.219" cy="100.396" rx="64.645" ry="75.589"/></g><path d="m118.081 250.571c18.934 4.247 29.388 20.115 33.833 51.233 1.418 9.929-.35 17.551-5.255 22.659-5.708 5.94-14.088 6.58-17.425 6.58-.282 0-.537-.004-.762-.011l.469-4.572c.087.001.179.001.275.001 2.767 0 9.687-.508 14.172-5.207 3.854-4.038 5.197-10.365 3.993-18.804-4.18-29.26-13.237-43.525-30.184-47.384z" fill="#474c5b"/><path d="m113.311 255.066c-16.948 3.858-26.004 18.124-30.184 47.384-1.204 8.439.138 14.766 3.991 18.804 4.485 4.699 11.405 5.207 14.172 5.207.1 0 .196-.001.286-.002l.46 4.575c-.228.007-.486.011-.773.011-3.334 0-11.706-.642-17.416-6.584-4.905-5.106-6.673-12.73-5.254-22.659 4.444-31.117 14.899-46.984 33.832-51.232z" fill="#474c5b"/><path d="m78.336 296.171h6.986c4.552-24.787 13.428-36.949 29.052-40.152h1.758c15.624 3.203 24.501 15.365 29.052 40.152h6.985c-4.71-26.67-14.504-41.128-31.18-46.019v-16.776h-11.473v16.776c-16.675 4.892-26.469 19.349-31.18 46.019z" fill="#27a2db"/><circle cx="128.904" cy="329.082" fill="#2f4859" r="4.84"/><circle cx="102.678" cy="329.082" fill="#2f4859" r="4.84"/><circle cx="266.113" cy="294.458" fill="#27a2db" r="16.861"/><circle cx="266.113" cy="294.458" fill="#4d5c7d" r="10.809"/><circle cx="266.113" cy="294.458" fill="#2f4859" r="5.319"/><path d="m178.465 65.546c5.05 7.012 13.216 11.051 21.315 14.064s16.586 5.335 23.82 10.061c13.643 8.914 21.042 26.466 17.895 42.457-2.607 13.25-10.489 20.979-18.398 31.924 5.948-2.198 10.714-1.776 16.033-5.227 6.211-4.029 11.962-8.936 16.128-15.057 1.797-2.64 3.286-5.479 4.656-8.364 23.427-49.354-3.408-88.88-12.031-96.078-6.407-5.349-13.961-9.172-21.74-12.198-12.457-4.846-26.69-7.681-39.019-2.516-6.337 2.654-15.688 9.179-16.166 16.781-.467 7.45 3.231 18.216 7.507 24.153z" fill="#474c5b"/><path d="m228.414 8.628c-12.871-9.254-30.074-9.771-45.761-7.491-9.795 1.424-19.544 3.829-28.374 8.302-11.883 6.02-53.428 44.545-39.508 107.823.814 3.699 1.778 7.376 3.151 10.906 1.68 4.318 3.984 8.346 6.66 12.132 1.921 13.014.522 39.612-46.5 29.622 0 0-2.465 14.096 27.776 24.53 31.397 10.832 50.813-2.029 47.188-30.809-.512-1.42-5.838-.536-11.401-19.737-2.927-8.297-5.001-16.766-4.718-25.521.626-19.317 13.853-37.63 31.995-44.294 9.619-3.534 20.046-3.955 30.208-5.278 10.162-1.324 20.675-3.815 28.38-10.572 6.524-5.721 13.667-17.177 15.111-25.912 1.476-8.912-7.591-18.944-14.207-23.701z" fill="#4d5c7d"/><path d="m115.729 122.724s16.517 46.016-41.718 36.881c0 0-.607 14.503 13.209 27.234s36.354-2.113 36.354-2.113l12.963-35.397-18.374-40.345z" fill="#4d5c7d"/><path d="m266.19 117.491s-15.59 51.248 42.645 42.114c0 0 .607 14.503-13.209 27.234-13.815 12.731-36.354-2.113-36.354-2.113l-12.963-35.397 18.374-40.345z" fill="#474c5b"/></g></svg>