<svg id="Layer_3" enable-background="new 0 0 64 64" height="512" viewBox="0 0 64 64" width="512" xmlns="http://www.w3.org/2000/svg"><g><path d="m40 39h-16c-7.18 0-13 5.82-13 13v6h8v5h26v-5h8v-6c0-7.18-5.82-13-13-13z" fill="#3279ea"/><path d="m25 39h-1c-.338 0-.669.025-1 .051v11.949h2z" fill="#a9adcc"/><path d="m38 39v10.142c-1.72.447-3 1.999-3 3.858v1c0 .553.448 1 1 1h2v-2h-1c0-1.103.897-2 2-2s2 .897 2 2h-1v2h2c.552 0 1-.447 1-1v-1c0-1.859-1.28-3.411-3-3.858v-10.142z" fill="#a9adcc"/><g fill="#fddfb1"><path d="m45 58h6v5h-6z"/><path d="m13 58h6v5h-6z"/><path d="m45 16v8c0 7.18-5.82 13-13 13-7.18 0-13-5.82-13-13v-8z"/><path d="m45 16v8c0 7.18-5.82 13-13 13-7.18 0-13-5.82-13-13v-8z"/><path d="m32 37c-2.166 0-4.204-.537-6-1.474v3.474l6 6 6-6v-3.474c-1.796.937-3.834 1.474-6 1.474z"/><path d="m19 24v-5h-.5c-1.933 0-3.5 1.567-3.5 3.5 0 1.933 1.567 3.5 3.5 3.5h.669c-.101-.654-.169-1.318-.169-2z"/><path d="m45.5 19h-.5v5c0 .682-.068 1.346-.169 2h.669c1.933 0 3.5-1.567 3.5-3.5 0-1.933-1.567-3.5-3.5-3.5z"/></g><g><path d="m43 55h2v8h-2z" fill="#5b94ee"/></g><g><path d="m19 55h2v8h-2z" fill="#5b94ee"/></g><circle cx="24" cy="52" fill="#e2e7f6" r="2"/><path d="m46 16h-28v-9c0-2.761 2.239-5 5-5h18c2.761 0 5 2.239 5 5z" fill="#3279ea"/><path d="m35 9h-2v-2h-2v2h-2v2h2v2h2v-2h2z" fill="#5b94ee"/><path d="m23 33.367c2.336 2.246 5.504 3.633 9 3.633s6.664-1.387 9-3.633v-9.367h-18z" fill="#7aadf9"/><path d="m23 24h1.414l-5.414-5.414v2.828l4 4z" fill="#7aadf9"/><path d="m45 21.414v-2.828l-5.414 5.414h1.414v1.414z" fill="#7aadf9"/></g></svg>